<?xml version="1.0" encoding="UTF-8" standalone="no"?>
<!-- Created with Inkscape (http://www.inkscape.org/) -->

<svg
   xmlns:dc="http://purl.org/dc/elements/1.1/"
   xmlns:cc="http://creativecommons.org/ns#"
   xmlns:rdf="http://www.w3.org/1999/02/22-rdf-syntax-ns#"
   xmlns:svg="http://www.w3.org/2000/svg"
   xmlns="http://www.w3.org/2000/svg"
   xmlns:sodipodi="http://sodipodi.sourceforge.net/DTD/sodipodi-0.dtd"
   xmlns:inkscape="http://www.inkscape.org/namespaces/inkscape"
   width="204.35092mm"
   height="262.53448mm"
   viewBox="0 0 204.35092 262.53448"
   version="1.1"
   id="svg3327"
   inkscape:version="0.92.5 (2060ec1f9f, 2020-04-08)"
   sodipodi:docname="obsNinja_cat_solo_black.svg">
  <defs
     id="defs3321" />
  <sodipodi:namedview
     id="base"
     pagecolor="#ffffff"
     bordercolor="#666666"
     borderopacity="1.0"
     inkscape:pageopacity="0.0"
     inkscape:pageshadow="2"
     inkscape:zoom="0.35"
     inkscape:cx="-168.11034"
     inkscape:cy="464.69965"
     inkscape:document-units="mm"
     inkscape:current-layer="layer1"
     showgrid="false"
     fit-margin-top="0"
     fit-margin-left="0"
     fit-margin-right="0"
     fit-margin-bottom="0"
     inkscape:window-width="1366"
     inkscape:window-height="740"
     inkscape:window-x="1440"
     inkscape:window-y="132"
     inkscape:window-maximized="1" />
  <metadata
     id="metadata3324">
    <rdf:RDF>
      <cc:Work
         rdf:about="">
        <dc:format>image/svg+xml</dc:format>
        <dc:type
           rdf:resource="http://purl.org/dc/dcmitype/StillImage" />
        <dc:title></dc:title>
      </cc:Work>
    </rdf:RDF>
  </metadata>
  <g
     inkscape:label="Layer 1"
     inkscape:groupmode="layer"
     id="layer1"
     transform="translate(-2.9018139,-9.2506448)">
    <g
       id="g3973">
      <path
         sodipodi:nodetypes="sccsssss"
         inkscape:connector-curvature="0"
         id="path1355"
         d="m 164.72343,54.035635 c 9.57623,2.330159 24.41871,1.905634 42.09271,0 -9.16266,2.728484 -7.00816,7.827934 0.14081,13.101327 0,0.07776 -0.0652,0.160773 -0.14081,0.140808 -13.62848,-3.693613 -28.02093,-1.122785 -42.09271,0 -0.0774,0.0035 -0.1408,-0.06235 -0.1408,-0.140808 V 54.176128 c 0,-0.07776 0.0648,-0.159022 0.1408,-0.140808 z"
         style="opacity:0.98999999;fill:#000000;fill-opacity:1;stroke:#000000;stroke-width:0.59156251;stroke-miterlimit:4;stroke-dasharray:none;stroke-opacity:0.99215686" />
      <path
         sodipodi:nodetypes="ccssscc"
         inkscape:connector-curvature="0"
         id="path1357"
         d="M 156.61816,99.290567 C 135.85836,105.32492 98.227292,97.794221 98.227292,97.794221 178.5626,144.83629 92.565417,212.03577 82.312576,270.24306 c -0.04764,0.27076 0.22137,0.49651 0.496471,0.49651 h 96.977883 c 0.27496,0 0.49909,-0.22137 0.49647,-0.49651 -1.11795,-62.27236 12.25483,-119.48839 -23.66524,-170.952493 z"
         style="opacity:0.98999999;fill:#000000;fill-opacity:1;stroke:#000000;stroke-width:2.09110117;stroke-miterlimit:4;stroke-dasharray:none;stroke-opacity:0.99215686" />
      <path
         style="opacity:0.98999999;fill:#000000;fill-opacity:1;stroke:#000000;stroke-width:0.59156251;stroke-miterlimit:4;stroke-dasharray:none;stroke-opacity:0.99215686"
         d="m 166.77541,62.87749 c 8.00037,-5.736482 17.02836,-16.871018 39.31533,-15.036418 -0.49584,-2.521055 -9.19885,-5.99491 -4.63836,-9.495175 -11.67661,5.892106 -24.67962,11.57195 -36.09465,14.915821 0,0 0.28477,6.546722 1.23631,9.53479 0.0245,0.07426 0.11699,0.125396 0.18144,0.08056 z"
         id="path1359"
         inkscape:connector-curvature="0"
         sodipodi:nodetypes="cccccsc" />
      <path
         sodipodi:nodetypes="cccc"
         inkscape:connector-curvature="0"
         id="path1361"
         d="M 18.30374,84.401145 55.436415,57.983577 2.9018109,40.993302 Z"
         inkscape:transform-center-y="-0.86696927"
         inkscape:transform-center-x="10.555001"
         style="opacity:0.98999999;fill:#000000;fill-opacity:1;stroke:none;stroke-width:0.17232786;stroke-miterlimit:4;stroke-dasharray:none;stroke-opacity:1" />
      <path
         style="opacity:0.98999999;fill:#000000;fill-opacity:1;stroke:none;stroke-width:0.17232786;stroke-miterlimit:4;stroke-dasharray:none;stroke-opacity:1"
         inkscape:transform-center-x="-2.602179"
         inkscape:transform-center-y="4.1621627"
         d="m 129.09008,38.135223 37.20671,26.313114 c 1.31764,-17.896094 2.79082,-35.747757 -1.32997,-55.1976901 z"
         id="path1363"
         inkscape:connector-curvature="0"
         sodipodi:nodetypes="cccc" />
      <path
         sodipodi:nodetypes="ccccc"
         inkscape:connector-curvature="0"
         id="path1366"
         d="m 141.81797,41.187416 c 6.94551,2.000096 13.04853,5.893363 18.97834,10.175872 -3.86076,-3.961686 -3.48354,-6.969877 -12.91684,-12.185322 l 9.41544,-19.816176 z"
         inkscape:transform-center-y="1.1829327"
         inkscape:transform-center-x="-0.0550525"
         style="opacity:0.98999999;fill:#ffffff;fill-opacity:1;stroke:none;stroke-width:0.09766699;stroke-miterlimit:4;stroke-dasharray:none;stroke-opacity:1" />
      <path
         style="opacity:0.98999999;fill:#ffffff;fill-opacity:1;stroke:none;stroke-width:0.09766699;stroke-miterlimit:4;stroke-dasharray:none;stroke-opacity:1"
         inkscape:transform-center-x="2.8986575"
         inkscape:transform-center-y="1.2933647"
         d="m 25.635836,66.266341 c 3.208047,-6.476798 2.141425,-3.404853 7.413853,-8.474772 C 23.229201,63.222694 14.295391,52.480691 6.9242259,47.141254 13.169133,53.439279 19.752128,56.35636 25.635836,66.266341 Z"
         id="path1368"
         inkscape:connector-curvature="0"
         sodipodi:nodetypes="cccc" />
      <path
         id="ellipse1370"
         d="M 2.5281601,92.207748 A 80.946175,42.760002 0 0 1 -78.418015,134.96775 80.946175,42.760002 0 0 1 -159.36419,92.207748 80.946175,42.760002 0 0 1 -78.418015,49.447746 80.946175,42.760002 0 0 1 2.5281601,92.207748 Z"
         style="opacity:0.98999999;fill:#000000;fill-opacity:1;stroke:none;stroke-width:0.23783197;stroke-miterlimit:4;stroke-dasharray:none;stroke-opacity:1"
         transform="matrix(-0.9902407,0.13936771,0.19705157,0.98039313,0,0)" />
      <path
         sodipodi:nodetypes="csccssssssc"
         inkscape:connector-curvature="0"
         id="path1372"
         d="M 153.95293,56.636634 C 129.11607,88.789979 37.135612,87.389811 34.846539,82.521598 c -0.01378,-0.02934 -0.02217,0.04538 -0.04055,0.07648 -4.458558,14.529854 8.919927,21.548982 14.740959,18.940802 15.540319,-14.024858 51.003032,-16.355556 55.107932,-17.679239 4.5334,-1.46186 54.10082,-1.719167 55.31732,-4.01484 l 0.0406,-0.07652 c 3.9885,-7.526741 0.11779,-17.617831 -5.98601,-23.080009 -0.0252,-0.02249 -0.0421,-0.05853 -0.0738,-0.05172 -0.0294,0.0063 0,3.1e-5 0,4.7e-5 z"
         style="opacity:0.98999999;fill:#ffffff;fill-opacity:1;stroke:none;stroke-width:0.16215092;stroke-miterlimit:4;stroke-dasharray:none;stroke-opacity:1" />
      <path
         id="ellipse1374"
         d="m -24.483776,97.662979 a 2.2225552,5.7151418 0 0 1 -2.222555,5.715141 2.2225552,5.7151418 0 0 1 -2.222555,-5.715141 2.2225552,5.7151418 0 0 1 2.222555,-5.715142 2.2225552,5.7151418 0 0 1 2.222555,5.715142 z"
         style="opacity:0.98999999;fill:#000000;fill-opacity:1;stroke:none;stroke-width:0.2597692;stroke-miterlimit:4;stroke-dasharray:none;stroke-opacity:1"
         transform="matrix(-0.95869483,0.28443667,0.28443667,0.95869483,0,0)" />
      <path
         id="ellipse1376"
         d="m -103.63192,115.79251 a 1.7671715,4.5441551 0 0 1 -1.76717,4.54416 1.7671715,4.5441551 0 0 1 -1.76718,-4.54416 1.7671715,4.5441551 0 0 1 1.76718,-4.54415 1.7671715,4.5441551 0 0 1 1.76717,4.54415 z"
         style="opacity:0.98999999;fill:#000000;fill-opacity:1;stroke:none;stroke-width:0.20654458;stroke-miterlimit:4;stroke-dasharray:none;stroke-opacity:1"
         transform="matrix(-0.92649103,0.37631685,0.37631685,0.92649103,0,0)" />
    </g>
  </g>
</svg>
