<?xml version="1.0" encoding="utf-8"?><svg version="1.1" id="Layer_1" xmlns="http://www.w3.org/2000/svg" xmlns:xlink="http://www.w3.org/1999/xlink" x="0px" y="0px" fill="white" width="122.88px" height="122.871px" viewBox="0 0 122.88 122.871" enable-background="new 0 0 122.88 122.871" xml:space="preserve"><g><path d="M122.88,35.775v9.529H81.515c-2.278,0-4.125-1.847-4.125-4.125V0h9.63v35.775H122.88L122.88,35.775z M35.499,0h9.63v41.118 c0,2.278-1.847,4.125-4.125,4.125H0v-9.644h35.499V0L35.499,0z M0,87.164v-9.598h40.942c2.277,0,4.125,1.846,4.125,4.125v41.18 h-9.633V87.164H0L0,87.164z M77.328,122.871V81.752c0-2.277,1.847-4.125,4.125-4.125h41.427v9.625H86.931 c0,12.338-0.003,23.271-0.003,35.619H77.328L77.328,122.871z"/></g></svg>